<svg xmlns="http://www.w3.org/2000/svg" width="980" height="460" viewBox="0 0 980 460" font-family="-apple-system,Segoe UI,Roboto,sans-serif">
<rect width="980" height="460" fill="white"/>
<text x="78" y="28" font-size="19" font-weight="700" fill="#111">Calling a slow network operation</text>
<text x="78" y="48" font-size="13" fill="#666">concurrency = 50  —  Django Ninja uses async views</text>
<line x1="78" y1="384.0" x2="956" y2="384.0" stroke="#e6e6e6"/>
<text x="70" y="388.0" font-size="11" fill="#888" text-anchor="end">0</text>
<line x1="78" y1="320.0" x2="956" y2="320.0" stroke="#e6e6e6"/>
<text x="70" y="324.0" font-size="11" fill="#888" text-anchor="end">100</text>
<line x1="78" y1="256.0" x2="956" y2="256.0" stroke="#e6e6e6"/>
<text x="70" y="260.0" font-size="11" fill="#888" text-anchor="end">200</text>
<line x1="78" y1="192.0" x2="956" y2="192.0" stroke="#e6e6e6"/>
<text x="70" y="196.0" font-size="11" fill="#888" text-anchor="end">300</text>
<line x1="78" y1="128.0" x2="956" y2="128.0" stroke="#e6e6e6"/>
<text x="70" y="132.0" font-size="11" fill="#888" text-anchor="end">400</text>
<line x1="78" y1="64.0" x2="956" y2="64.0" stroke="#e6e6e6"/>
<text x="70" y="68.0" font-size="11" fill="#888" text-anchor="end">500</text>
<text x="16" y="224" font-size="12" fill="#666" transform="rotate(-90 16 224)" text-anchor="middle">requests / second</text>
<rect x="85.4" y="125.2" width="14.6" height="258.8" fill="#111111" rx="1.5"/>
<rect x="103.0" y="371.6" width="14.6" height="12.4" fill="#4285F4" rx="1.5"/>
<rect x="120.5" y="371.6" width="14.6" height="12.4" fill="#34A853" rx="1.5"/>
<text x="111.8" y="404.0" font-size="12" fill="#444" text-anchor="middle">1</text>
<rect x="153.0" y="89.0" width="14.6" height="295.0" fill="#111111" rx="1.5"/>
<rect x="170.5" y="365.6" width="14.6" height="18.4" fill="#4285F4" rx="1.5"/>
<rect x="188.1" y="365.7" width="14.6" height="18.3" fill="#34A853" rx="1.5"/>
<text x="179.3" y="404.0" font-size="12" fill="#444" text-anchor="middle">2</text>
<rect x="220.5" y="79.9" width="14.6" height="304.1" fill="#111111" rx="1.5"/>
<rect x="238.1" y="353.5" width="14.6" height="30.5" fill="#4285F4" rx="1.5"/>
<rect x="255.6" y="353.9" width="14.6" height="30.1" fill="#34A853" rx="1.5"/>
<text x="246.8" y="404.0" font-size="12" fill="#444" text-anchor="middle">4</text>
<rect x="288.0" y="81.5" width="14.6" height="302.5" fill="#111111" rx="1.5"/>
<rect x="305.6" y="341.5" width="14.6" height="42.5" fill="#4285F4" rx="1.5"/>
<rect x="323.2" y="342.1" width="14.6" height="41.9" fill="#34A853" rx="1.5"/>
<text x="314.4" y="404.0" font-size="12" fill="#444" text-anchor="middle">6</text>
<rect x="355.6" y="84.5" width="14.6" height="299.5" fill="#111111" rx="1.5"/>
<rect x="373.1" y="329.5" width="14.6" height="54.5" fill="#4285F4" rx="1.5"/>
<rect x="390.7" y="330.9" width="14.6" height="53.1" fill="#34A853" rx="1.5"/>
<text x="381.9" y="404.0" font-size="12" fill="#444" text-anchor="middle">8</text>
<rect x="423.1" y="88.4" width="14.6" height="295.6" fill="#111111" rx="1.5"/>
<rect x="440.7" y="317.5" width="14.6" height="66.5" fill="#4285F4" rx="1.5"/>
<rect x="458.2" y="319.5" width="14.6" height="64.5" fill="#34A853" rx="1.5"/>
<text x="449.5" y="404.0" font-size="12" fill="#444" text-anchor="middle">10</text>
<rect x="490.7" y="91.1" width="14.6" height="292.9" fill="#111111" rx="1.5"/>
<rect x="508.2" y="305.5" width="14.6" height="78.5" fill="#4285F4" rx="1.5"/>
<rect x="525.8" y="308.6" width="14.6" height="75.4" fill="#34A853" rx="1.5"/>
<text x="517.0" y="404.0" font-size="12" fill="#444" text-anchor="middle">12</text>
<rect x="558.2" y="94.3" width="14.6" height="289.7" fill="#111111" rx="1.5"/>
<rect x="575.8" y="293.6" width="14.6" height="90.4" fill="#4285F4" rx="1.5"/>
<rect x="593.3" y="297.2" width="14.6" height="86.8" fill="#34A853" rx="1.5"/>
<text x="584.5" y="404.0" font-size="12" fill="#444" text-anchor="middle">14</text>
<rect x="625.7" y="99.1" width="14.6" height="284.9" fill="#111111" rx="1.5"/>
<rect x="643.3" y="281.7" width="14.6" height="102.3" fill="#4285F4" rx="1.5"/>
<rect x="660.9" y="286.5" width="14.6" height="97.5" fill="#34A853" rx="1.5"/>
<text x="652.1" y="404.0" font-size="12" fill="#444" text-anchor="middle">16</text>
<rect x="693.3" y="103.8" width="14.6" height="280.2" fill="#111111" rx="1.5"/>
<rect x="710.8" y="269.5" width="14.6" height="114.5" fill="#4285F4" rx="1.5"/>
<rect x="728.4" y="275.8" width="14.6" height="108.2" fill="#34A853" rx="1.5"/>
<text x="719.6" y="404.0" font-size="12" fill="#444" text-anchor="middle">18</text>
<rect x="760.8" y="108.2" width="14.6" height="275.8" fill="#111111" rx="1.5"/>
<rect x="778.4" y="257.5" width="14.6" height="126.5" fill="#4285F4" rx="1.5"/>
<rect x="795.9" y="265.9" width="14.6" height="118.1" fill="#34A853" rx="1.5"/>
<text x="787.2" y="404.0" font-size="12" fill="#444" text-anchor="middle">20</text>
<rect x="828.4" y="112.3" width="14.6" height="271.7" fill="#111111" rx="1.5"/>
<rect x="845.9" y="245.4" width="14.6" height="138.6" fill="#4285F4" rx="1.5"/>
<rect x="863.5" y="256.2" width="14.6" height="127.8" fill="#34A853" rx="1.5"/>
<text x="854.7" y="404.0" font-size="12" fill="#444" text-anchor="middle">22</text>
<rect x="895.9" y="115.6" width="14.6" height="268.4" fill="#111111" rx="1.5"/>
<rect x="913.5" y="234.2" width="14.6" height="149.8" fill="#4285F4" rx="1.5"/>
<rect x="931.0" y="245.9" width="14.6" height="138.1" fill="#34A853" rx="1.5"/>
<text x="922.2" y="404.0" font-size="12" fill="#444" text-anchor="middle">24</text>
<rect x="78" y="434" width="13" height="13" fill="#111111" rx="2"/>
<text x="96" y="444" font-size="12" fill="#333">Django Ninja</text>
<rect x="204" y="434" width="13" height="13" fill="#4285F4" rx="2"/>
<text x="222" y="444" font-size="12" fill="#333">Flask + marshmallow</text>
<rect x="386" y="434" width="13" height="13" fill="#34A853" rx="2"/>
<text x="404" y="444" font-size="12" fill="#333">Django REST framework</text>
</svg>